<?xml version="1.0" encoding="utf-8"?>
<svg xmlns="http://www.w3.org/2000/svg" viewBox="-25 -96.6785263810745 400 400" class="css-1j8o68f" xmlns:bx="https://boxy-svg.com">
  <defs id="SvgjsDefs2758">
    <bx:grid x="-25.972" y="3.417" width="100" height="100"/>
  </defs>
  <rect x="-25" y="-96.6785263810745" width="400" height="400" style="fill: #000000;"/>
  <g transform="matrix(1, 0, 0, 1, -0.000008, -12.323213)">
    <g id="SvgjsG2759" featurekey="symbolFeature-0" transform="matrix(2.375901, 0, 0, 2.375901, 56.204953, -41.895013)" fill="#cb6a6a" style="">
      <g xmlns="http://www.w3.org/2000/svg">
        <polygon points="68,50 86,32 68,14 68,23 14,23 14,41 68,41  "/>
        <polygon points="32,50 14,68 32,86 32,77 86,77 86,59 32,59  "/>
      </g>
    </g>
    <g id="SvgjsG2760" featurekey="nameFeature-0" transform="matrix(1.160177, 0, 0, 1.160177, 32.742352, 170.460635)" fill="#cb6a6a" style="">
      <path d="M14.707 19.531 c5.2734 0 9.6484 3.9063 9.6484 10.469 s-4.375 10.469 -9.6484 10.469 c-2.7734 0 -5.1953 -1.1133 -6.3281 -3.0859 l-0.13672 2.6172 l-5.332 0 l0 -30 l5.625 0 l0 12.363 c1.1719 -1.8164 3.5156 -2.832 6.1719 -2.832 z M13.398 35.8008 c2.9883 0 5.332 -2.207 5.332 -5.8008 c0 -3.6133 -2.3438 -5.8203 -5.332 -5.8203 c-2.9688 0 -5.3125 2.3047 -5.3125 5.8203 s2.3242 5.8008 5.3125 5.8008 z M48.90625 34.5508 c0 2.4609 0.23438 4.0234 0.48828 4.9023 l0 0.54688 l-5.2539 0 l-0.44922 -2.1875 c-1.5039 1.8164 -4.1016 2.5781 -6.4453 2.5781 c-3.1641 0 -6.25 -1.4063 -6.25 -5.5859 c0 -4.1602 3.1055 -5.5664 7.3047 -6.4844 l3.3008 -0.74219 c1.4258 -0.33203 1.9336 -0.82031 1.9336 -1.6406 c0 -1.9727 -1.7969 -2.5195 -3.3789 -2.5195 c-2.0313 0 -3.5742 0.80078 -3.9258 3.0664 l-4.9805 -0.89844 c0.83984 -4.1602 3.8867 -6.0547 9.2188 -6.0547 c4.0234 0 8.4375 1.1914 8.4375 7.2461 l0 7.7734 z M39.00395 36.582 c2.6758 0 4.8242 -1.7773 4.8242 -5.7617 l-4.7656 1.3477 c-1.5625 0.37109 -2.6953 0.91797 -2.6953 2.2656 c0 1.4453 1.1914 2.1484 2.6367 2.1484 z M67.3045 40.37109 c-6.3086 0 -10.762 -4.1992 -10.762 -10.43 c0 -6.25 4.4531 -10.41 10.762 -10.41 c5.0781 0 8.8867 2.6367 9.8633 7.3828 l-5.1953 0.56641 c-0.625 -2.4023 -2.3633 -3.5156 -4.7266 -3.5156 c-3.0273 0 -5.0781 2.3828 -5.0781 5.9766 c0 3.5742 2.0508 5.9766 5.0781 5.9766 c2.3633 0 4.1016 -1.1328 4.7266 -3.5156 l5.1953 0.56641 c-0.97656 4.7461 -4.8828 7.4023 -9.8633 7.4023 z M98.339375 40 l-6.4648 -8.4375 l-1.1719 0 l0 8.4375 l-5.6836 0 l0 -30 l5.6836 0 l0 17.656 l1.0547 0 l6.3086 -7.7344 l6.3672 0 l-7.9102 9.3164 l8.6523 10.762 l-6.8359 0 z M137.168375 19.922 l5.8203 0 l-7.0313 20.098 l-5.2148 0 l-4.6484 -13.262 l-4.6875 13.262 l-5.293 0 l-6.8945 -20.098 l5.8008 0 l4.1406 13.066 l4.7461 -13.066 l4.3164 0 l4.7266 13.027 z M159.31678125 40.39063 c-6.3867 0 -10.996 -3.8867 -10.996 -10.449 c0 -6.5234 4.5703 -10.41 10.996 -10.41 c6.4648 0 11.016 3.8867 11.016 10.41 c0 6.5625 -4.5703 10.449 -11.016 10.449 z M159.25778125 35.918 c3.2617 0 5.4883 -2.3828 5.4883 -5.9766 s-2.2266 -5.9766 -5.4883 -5.9766 c-3.1445 0 -5.3516 2.3828 -5.3516 5.9766 s2.207 5.9766 5.3516 5.9766 z M183.75001875 23.105 c1.0156 -1.7773 3.6523 -3.418 6.5625 -3.418 l0 5.0195 c-4.2578 0 -6.2891 1.25 -6.2891 5.5078 l0 9.7852 l-5.6641 0 l0 -20.078 l5.3906 0 l0 3.1836 z M211.69878125 10 l5.625 0 l0 30 l-5.332 0 l-0.13672 -2.6172 c-1.1523 1.9727 -3.5742 3.0859 -6.3086 3.0859 c-5.293 0 -9.668 -3.9063 -9.668 -10.469 s4.3945 -10.469 9.668 -10.469 c2.6367 0 4.9609 0.99609 6.1523 2.8125 l0 -12.344 z M206.83578125 35.8008 c2.9883 0 5.3125 -2.2852 5.3125 -5.8008 s-2.3438 -5.8203 -5.3125 -5.8203 c-2.9883 0 -5.332 2.207 -5.332 5.8203 c0 3.5938 2.3438 5.8008 5.332 5.8008 z M234.06253125 40.39063 c-4.5117 0 -8.0078 -1.7773 -8.7305 -5.5859 l4.707 -1.3281 c0.60547 2.1484 2.1289 2.9883 4.0234 2.9883 c1.3867 0 2.8906 -0.42969 2.8516 -2.0117 c-0.019531 -2.0898 -3.1836 -2.2656 -6.3672 -3.3984 c-2.4023 -0.83984 -4.707 -2.1289 -4.707 -5.5078 c0 -4.1211 3.418 -6.0156 7.8711 -6.0156 c3.9063 0 7.168 1.4844 7.9492 5.3125 l-4.3555 0.97656 c-0.60547 -1.875 -1.9336 -2.5391 -3.5742 -2.5391 c-1.4844 0 -2.7539 0.52734 -2.7539 1.7773 c0 1.582 2.3242 1.8945 4.8438 2.5781 c3.1055 0.83984 6.5039 2.1875 6.5039 6.4844 c0 4.6094 -3.9258 6.2695 -8.2617 6.2695 z"/>
    </g>
    <g id="SvgjsG2761" featurekey="sloganFeature-0" transform="matrix(0.588434, 0, 0, 0.588434, 36.600064, 228.038166)" fill="#cb6a6a" style="">
      <path d="M11.27 20 l-1.0254 -2.9102 l-5.9277 0 l-1.0254 2.9102 l-2.998 0 l5.1953 -14.111 l3.584 0 l5.1953 14.111 l-2.998 0 z M5.1758 14.6387 l4.209 0 l-2.0996 -5.9863 z M48.3935828125 20.19531 c-3.0273 0 -5.3906 -1.4551 -5.8203 -4.1016 l3.0273 -0.69336 c0.19531 1.582 1.3574 2.4023 2.9102 2.4023 c1.1914 0 2.1387 -0.52734 2.1289 -1.7188 c-0.0097656 -1.3281 -1.5723 -1.748 -3.291 -2.2754 c-2.0703 -0.64453 -4.2871 -1.4063 -4.2871 -4.0039 c0 -2.627 2.1484 -4.1113 4.9805 -4.1113 c2.4805 0 4.9805 1.0059 5.5469 3.7109 l-2.832 0.70313 c-0.26367 -1.4063 -1.2109 -2.0215 -2.5391 -2.0215 c-1.1816 0 -2.1875 0.48828 -2.1875 1.6504 c0 1.084 1.3867 1.4453 2.9883 1.9238 c2.1289 0.64453 4.6484 1.4648 4.6484 4.2773 c0 2.998 -2.5098 4.2578 -5.2734 4.2578 z M75.61791015625 5.888999999999999 l0 2.5781 l-3.3496 0 l0 11.533 l-2.9004 0 l0 -11.533 l-3.3691 0 l0 -2.5781 l9.6191 0 z M96.3476125 20 l-3.6719 -6.2109 l-0.84961 0 l0 6.2109 l-2.9297 0 l0 -14.111 l5.1172 0 c3.1934 0 4.541 1.8848 4.541 4.2188 c0 1.8945 -1.0742 3.125 -2.9883 3.5352 l4.248 6.3574 l-3.4668 0 z M91.8262125 8.32 l0 3.3691 l1.7285 0 c1.5625 0 2.1973 -0.66406 2.1973 -1.6797 c0 -1.0059 -0.63477 -1.6895 -2.1973 -1.6895 l-1.7285 0 z M113.02493046875 20 l0 -14.111 l2.9297 0 l0 14.111 l-2.9297 0 z M140.2980078125 5.888999999999999 l2.9199 0 l0 14.111 l-3.3887 0 l-6.25 -10.088 l0 10.088 l-2.9199 0 l0 -14.111 l3.3496 0 l6.2891 10.029 l0 -10.029 z M164.03565703125 20.19531 c-4.0723 0 -7.0703 -2.8125 -7.0703 -7.2168 c0 -4.4629 3.0664 -7.2852 7.2168 -7.2852 c2.7246 0 4.9805 1.2012 6.2109 3.3203 l-2.5684 1.3672 c-0.74219 -1.4453 -2.0703 -2.1387 -3.6426 -2.1387 c-2.4414 0 -4.2773 1.6797 -4.2773 4.668 c0 2.8809 1.7188 4.7363 4.3848 4.7363 c1.8066 0 3.4668 -0.89844 3.8672 -2.959 l-3.8574 0 l0 -2.3535 l6.6309 0 l0 7.666 l-2.3047 0 l0 -1.9531 c-0.9082 1.3379 -2.4316 2.1484 -4.5898 2.1484 z M184.628925 15.976600000000001 l0 -2.3535 l7.002 0 l0 2.3535 l-7.002 0 z M213.39595234375 20 l-3.6719 -6.2109 l-0.84961 0 l0 6.2109 l-2.9297 0 l0 -14.111 l5.1172 0 c3.1934 0 4.541 1.8848 4.541 4.2188 c0 1.8945 -1.0742 3.125 -2.9883 3.5352 l4.248 6.3574 l-3.4668 0 z M208.87455234375 8.32 l0 3.3691 l1.7285 0 c1.5625 0 2.1973 -0.66406 2.1973 -1.6797 c0 -1.0059 -0.63477 -1.6895 -2.1973 -1.6895 l-1.7285 0 z M238.2570703125 8.467 l-5.2344 0 l0 3.2031 l4.6387 0 l0 2.5488 l-4.6387 0 l0 3.1934 l5.2344 0 l0 2.5879 l-8.1836 0 l0 -14.111 l8.1836 0 l0 2.5781 z M261.31125390625 5.888999999999999 l3.1152 0 l-5.2148 14.111 l-3.2227 0 l-5.1855 -14.111 l3.1055 0 l3.7012 10.693 z M285.79125 8.467 l-5.2344 0 l0 3.2031 l4.6387 0 l0 2.5488 l-4.6387 0 l0 3.1934 l5.2344 0 l0 2.5879 l-8.1836 0 l0 -14.111 l8.1836 0 l0 2.5781 z M307.32173359375 20 l-3.6719 -6.2109 l-0.84961 0 l0 6.2109 l-2.9297 0 l0 -14.111 l5.1172 0 c3.1934 0 4.541 1.8848 4.541 4.2188 c0 1.8945 -1.0742 3.125 -2.9883 3.5352 l4.248 6.3574 l-3.4668 0 z M302.80033359375 8.32 l0 3.3691 l1.7285 0 c1.5625 0 2.1973 -0.66406 2.1973 -1.6797 c0 -1.0059 -0.63477 -1.6895 -2.1973 -1.6895 l-1.7285 0 z M328.6865515625 20.19531 c-3.0273 0 -5.3906 -1.4551 -5.8203 -4.1016 l3.0273 -0.69336 c0.19531 1.582 1.3574 2.4023 2.9102 2.4023 c1.1914 0 2.1387 -0.52734 2.1289 -1.7188 c-0.0097656 -1.3281 -1.5723 -1.748 -3.291 -2.2754 c-2.0703 -0.64453 -4.2871 -1.4063 -4.2871 -4.0039 c0 -2.627 2.1484 -4.1113 4.9805 -4.1113 c2.4805 0 4.9805 1.0059 5.5469 3.7109 l-2.832 0.70313 c-0.26367 -1.4063 -1.2109 -2.0215 -2.5391 -2.0215 c-1.1816 0 -2.1875 0.48828 -2.1875 1.6504 c0 1.084 1.3867 1.4453 2.9883 1.9238 c2.1289 0.64453 4.6484 1.4648 4.6484 4.2773 c0 2.998 -2.5098 4.2578 -5.2734 4.2578 z M357.17087890625 20 l-1.0254 -2.9102 l-5.9277 0 l-1.0254 2.9102 l-2.998 0 l5.1953 -14.111 l3.584 0 l5.1953 14.111 l-2.998 0 z M351.07667890625 14.6387 l4.209 0 l-2.0996 -5.9863 z M376.2793375 17.4121 l4.4238 0 l0 2.5879 l-7.3535 0 l0 -14.111 l2.9297 0 l0 11.523 z M419.7026171875 20 l-1.0254 -2.9102 l-5.9277 0 l-1.0254 2.9102 l-2.998 0 l5.1953 -14.111 l3.584 0 l5.1953 14.111 l-2.998 0 z M413.6084171875 14.6387 l4.209 0 l-2.0996 -5.9863 z M441.75047578125 5.888999999999999 c2.7637 0 4.4824 2.0508 4.4824 4.5605 c0 2.5684 -1.7188 4.4922 -4.4824 4.4922 l-2.9395 0 l0 5.0586 l-2.9297 0 l0 -14.111 l5.8691 0 z M441.26217578125 12.4902 c1.4648 0 2.1484 -0.81055 2.1484 -2.0801 c0 -1.2207 -0.68359 -2.0703 -2.1484 -2.0703 l-2.4512 0 l0 4.1504 l2.4512 0 z M465.6249875 5.888999999999999 c2.7637 0 4.4824 2.0508 4.4824 4.5605 c0 2.5684 -1.7188 4.4922 -4.4824 4.4922 l-2.9395 0 l0 5.0586 l-2.9297 0 l0 -14.111 l5.8691 0 z M465.1366875 12.4902 c1.4648 0 2.1484 -0.81055 2.1484 -2.0801 c0 -1.2207 -0.68359 -2.0703 -2.1484 -2.0703 l-2.4512 0 l0 4.1504 l2.4512 0 z"/>
    </g>
  </g>
</svg>